<?xml version="1.0" standalone="no"?>
<!DOCTYPE svg PUBLIC "-//W3C//DTD SVG 20010904//EN"
 "http://www.w3.org/TR/2001/REC-SVG-20010904/DTD/svg10.dtd">
<svg version="1.0" xmlns="http://www.w3.org/2000/svg"
 width="523.000000pt" height="523.000000pt" viewBox="0 0 523.000000 523.000000"
 preserveAspectRatio="xMidYMid meet">
<metadata>
Created by potrace 1.11, written by Peter Selinger 2001-2013
</metadata>
<g transform="translate(0.000000,523.000000) scale(0.100000,-0.100000)"
fill="#000000" stroke="none">
<path d="M2575 4510 c-145 -14 -200 -21 -229 -31 -16 -5 -43 -9 -60 -9 -50 0
-191 -68 -211 -102 -9 -17 -32 -36 -51 -44 -18 -8 -40 -28 -49 -44 -9 -17 -19
-30 -24 -30 -8 0 -212 -199 -238 -233 -7 -9 -13 -20 -13 -26 0 -5 -16 -28 -35
-51 -24 -29 -35 -52 -35 -74 0 -17 -7 -42 -16 -54 -10 -15 -17 -55 -20 -124
-3 -57 -10 -125 -15 -151 -5 -26 -9 -65 -9 -85 0 -20 -4 -43 -8 -49 -5 -7 -4
-39 0 -70 5 -32 11 -80 13 -108 3 -27 8 -61 11 -75 2 -14 7 -43 10 -65 4 -22
11 -49 18 -60 7 -12 12 -86 13 -195 3 -303 9 -390 31 -440 11 -25 20 -66 20
-92 0 -26 3 -61 7 -77 7 -34 48 -65 73 -56 31 9 51 -17 62 -80 12 -71 30 -136
42 -149 4 -6 8 -25 8 -42 0 -18 5 -36 10 -39 6 -3 10 -36 11 -73 0 -37 6 -109
13 -161 12 -90 11 -95 -9 -125 -12 -17 -27 -30 -34 -28 -7 1 -10 -2 -6 -8 7
-11 -44 -87 -58 -88 -5 0 -12 -4 -15 -8 -4 -4 -1 -4 6 0 17 10 15 -4 -6 -37
-10 -15 -22 -24 -27 -20 -4 5 -5 3 -1 -4 10 -18 -4 -68 -15 -51 -5 8 -9 9 -9
2 0 -7 -24 -37 -52 -67 -111 -116 -186 -214 -250 -327 -23 -41 -56 -86 -72
-100 -45 -37 -82 -74 -87 -86 -5 -13 -196 -101 -264 -121 -27 -8 -68 -26 -90
-38 -47 -27 -150 -69 -226 -91 -30 -9 -80 -29 -111 -45 -32 -16 -65 -29 -75
-29 -10 0 -42 -13 -71 -28 -226 -115 -219 -111 -290 -188 -25 -28 -72 -99 -72
-110 0 -2 1161 -4 2580 -4 l2580 0 0 235 0 235 -27 6 c-15 4 -33 13 -40 20
-10 10 -142 59 -188 70 -5 2 -41 14 -80 28 -38 14 -80 26 -91 26 -12 0 -33 9
-47 20 -14 11 -33 20 -42 20 -10 0 -32 9 -49 19 -17 10 -47 22 -66 26 -46 10
-100 38 -124 64 -10 11 -23 18 -28 14 -6 -3 -13 -1 -17 5 -3 6 -18 12 -31 14
-14 2 -35 9 -47 16 -12 7 -32 12 -45 12 -13 0 -36 7 -53 16 -16 9 -39 17 -50
20 -11 2 -63 17 -115 34 -52 16 -113 34 -135 40 -33 8 -44 17 -64 56 -14 25
-47 69 -74 97 -67 69 -92 105 -106 149 -13 41 -82 151 -115 184 -44 44 -63 71
-91 121 l-28 53 6 182 c4 101 9 197 11 213 3 17 10 64 15 106 17 126 37 155
86 129 20 -11 29 -10 57 7 50 29 106 167 123 304 3 24 8 58 10 74 10 61 4 202
-11 275 -9 41 -19 129 -23 195 -4 66 -17 185 -29 265 -12 80 -21 156 -21 170
0 14 -4 45 -10 70 -6 25 -15 65 -19 90 -5 25 -32 94 -61 153 -28 59 -49 112
-46 117 11 17 -6 59 -21 53 -19 -7 -50 22 -58 53 -4 13 -12 24 -19 24 -20 0
-107 91 -114 119 -7 30 -40 60 -65 61 -10 0 -18 4 -18 9 0 5 -15 16 -32 25
-18 8 -44 27 -57 41 -31 33 -80 57 -206 102 -141 49 -268 66 -400 53z"/>
</g>
</svg>
