<?xml version="1.0" encoding="utf-8"?>
<!-- Svg Vector Icons : http://www.onlinewebfonts.com/icon -->
<!DOCTYPE svg PUBLIC "-//W3C//DTD SVG 1.1//EN" "http://www.w3.org/Graphics/SVG/1.1/DTD/svg11.dtd">
<svg version="1.1" xmlns="http://www.w3.org/2000/svg" xmlns:xlink="http://www.w3.org/1999/xlink" x="0px" y="0px" viewBox="0 0 1000 1000" enable-background="new 0 0 1000 1000" xml:space="preserve">
<metadata> Svg Vector Icons : http://www.onlinewebfonts.com/icon </metadata>
<g stroke="white"><path d="M971.3,880.8L671.1,580.5l0,0L590.7,500l79.5-79.3l-0.3-0.3l299.5-300.1c24.6-24.7,24.6-65.1-0.1-90c-24.6-24.9-64.5-24.8-89.1,0L579.9,330.5l0,0l-79.4,79.4l-80.4-80.4l0,0L119.8,29.2c-24.7-24.8-64.5-24.9-89.1,0C6,54.2,6,94.5,30.5,119.3l299.5,300.1l-0.3,0.3l80.5,80.4l-81.5,81.5l0,0L28.7,881.8c-24.8,24.7-24.9,64.5,0,89.1c24.9,24.7,65.3,24.7,90,0.1l300.1-299.5l0.3,0.3l81.4-81.6l80.4,80.6l0.3-0.3L881.3,970c24.7,24.6,65.1,24.6,90-0.1C996.3,945.3,996.2,905.4,971.3,880.8z" fill="#ffffff" stroke-width="10"/></g>
</svg>
